<svg width="25" height="25" viewBox="0 0 25 25" fill="none" xmlns="http://www.w3.org/2000/svg">
<circle cx="12.5" cy="12.5" r="12.5" fill="#2E282A"/>
<path fill-rule="evenodd" clip-rule="evenodd" d="M5.73864 7.86364C5.73864 5.72981 7.46845 4 9.60227 4H12.5C14.6338 4 16.3636 5.72981 16.3636 7.86364V8.72735C17.9873 9.11335 19.2614 10.6795 19.2614 12.5V15.1088C19.2614 15.5608 19.3935 16.0029 19.6414 16.3807L20.8733 18.2579C21.0291 18.4953 21.0421 18.799 20.9072 19.0489C20.7723 19.2988 20.5112 19.4545 20.2273 19.4545H12.5C10.3662 19.4545 8.63636 17.7247 8.63636 15.5909V14.8182H4.77273C4.48875 14.8182 4.22766 14.6624 4.09276 14.4125C3.95786 14.1627 3.97089 13.8589 4.12669 13.6215L5.35857 11.7443C5.60653 11.3665 5.73864 10.9244 5.73864 10.4725V7.86364ZM10.1818 14.8182V15.5909C10.1818 16.8712 11.2197 17.9091 12.5 17.9091H18.7959L18.3494 17.2286C17.9361 16.5989 17.7159 15.8621 17.7159 15.1088V12.5C17.7159 11.5132 17.112 10.7002 16.3636 10.3572V10.9545C16.3636 13.0884 14.6338 14.8182 12.5 14.8182H10.1818Z" fill="#FA7921"/>
</svg>
