<svg width="25" height="22" viewBox="0 0 25 22" fill="none" xmlns="http://www.w3.org/2000/svg">
<path d="M23.6793 11.3319C22.1807 14.1716 15.752 19.1018 13.4368 20.8251C13.1947 21.0073 12.9006 21.1071 12.5976 21.1098C12.2942 21.1093 11.9994 21.0093 11.7584 20.8251C9.44316 19.1018 3.0294 14.1716 1.50838 11.3319C0.610251 9.66121 0.367475 7.71566 0.827507 5.87553C1.28754 4.03541 2.41731 2.433 3.99597 1.38155C4.99951 0.74345 6.16346 0.403093 7.35269 0.400004C8.37834 0.413615 9.38665 0.666608 10.2972 1.13881C11.2078 1.61102 11.9955 2.28939 12.5976 3.11986C13.1984 2.2881 13.9858 1.60878 14.8967 1.13643C15.8076 0.66408 16.8165 0.411855 17.8425 0.400004C19.0418 0.397816 20.2169 0.738367 21.2292 1.38155C22.8028 2.43754 23.9261 4.04254 24.3792 5.88271C24.8323 7.72289 24.5827 9.66591 23.6793 11.3319V11.3319Z" fill="#2E282A"/>
</svg>
