<svg width="25" height="22" viewBox="0 0 25 22" fill="none" xmlns="http://www.w3.org/2000/svg">
<path d="M21.6234 1.37397C20.6177 0.737738 19.4526 0.398828 18.2625 0.396355C17.2337 0.407076 16.2217 0.658581 15.3076 1.13071C14.3935 1.60283 13.6027 2.28247 12.9984 3.11518C12.3942 2.28247 11.6033 1.60283 10.6892 1.13071C9.77508 0.658581 8.76311 0.407076 7.73432 0.396355C6.54425 0.398828 5.37913 0.737738 4.3734 1.37397C1.14553 3.38706 0.0406368 7.84707 1.90332 11.3295C3.4247 14.1756 9.83996 19.1157 12.1596 20.8395C12.4021 21.0199 12.6962 21.1172 12.9984 21.1172C13.3006 21.1172 13.5947 21.0199 13.8372 20.8395C16.1511 19.1041 22.5721 14.1756 24.0935 11.3295C25.9562 7.84128 24.8513 3.38127 21.6234 1.37397ZM23.1332 10.8204C21.9763 12.9492 17.2444 16.9407 13.1835 19.9661C13.1304 20.0069 13.0654 20.0293 12.9984 20.0297C12.9298 20.0285 12.8631 20.0063 12.8075 19.9661C8.75821 16.9407 4.00317 12.9492 2.86358 10.8204C1.27278 7.82971 2.20413 4.01181 4.95188 2.29953C5.78481 1.77343 6.74916 1.49275 7.73432 1.48968C8.5939 1.49719 9.43956 1.70751 10.2025 2.10356C10.9654 2.49961 11.6241 3.07019 12.1249 3.76886L12.9984 4.9258L13.8719 3.76886C14.3727 3.07019 15.0314 2.49961 15.7943 2.10356C16.5573 1.70751 17.4029 1.49719 18.2625 1.48968C19.2477 1.49275 20.212 1.77343 21.045 2.29953C23.7927 4.00602 24.7414 7.82394 23.1332 10.8146V10.8204Z" fill="#2E282A"/>
</svg>
